<svg xmlns="http://www.w3.org/2000/svg" viewBox="0 0 512 512"><path d="M0 0h512v512H0z"/><path d="m408.201 16-33.669 104.7 15.224 9.093 74.888-96.242zm-64.379 3.779-69.882 4.356 53.19 79.893 19.897 3.054zm-118.47 104.324v25.796s30.108 41.492 35.662 62.404c5.555 20.914 5.554 37.038 0 57.95s-35.661 62.408-35.661 62.408v31.173c68.599-2.676 141.948-19.073 218.915-49.191-8.447-42.838-21.246-86.16-38.342-120.669-27.042-39.31-103.314-65.895-180.573-69.871m-40.123 4.043C114.054 131.805 47.24 154.688 16 189v142.053c59.195 19.621 114.472 30.65 169.23 32.787v-31.178s-30.108-41.494-35.661-62.407c-5.555-20.913-5.555-37.036 0-57.95 5.553-20.912 35.66-62.406 35.66-62.406zm296.22-28.462-63.765 61.29 11.67 20.693 59.208-4.969zm-276.158 82.971c-3.859 0-7.72 3.941-15.6 11.822-15.76 15.76-15.76 77.85 0 93.609s15.443 15.76 31.202 0c15.761-15.76 15.761-77.85 0-93.61-7.88-7.88-11.74-11.821-15.602-11.821m241.446 172.491C294.785 412.979 163.61 418.83 16 373.045V496h434.897c2.92-49.277 1.51-96.613-4.16-140.854" fill="#fff"/></svg>